<?xml version="1.0" standalone="no"?>
<!DOCTYPE svg PUBLIC "-//W3C//DTD SVG 20010904//EN"
 "http://www.w3.org/TR/2001/REC-SVG-20010904/DTD/svg10.dtd">
<svg version="1.0" xmlns="http://www.w3.org/2000/svg"
 width="512.000000pt" height="512.000000pt" viewBox="0 0 512.000000 512.000000"
 preserveAspectRatio="xMidYMid meet">
<metadata>
Created by potrace 1.14, written by Peter Selinger 2001-2017
</metadata>
<g transform="translate(0.000000,512.000000) scale(0.100000,-0.100000)"
fill="#000000" stroke="none">
<path d="M2325 4658 c-126 -123 -389 -381 -585 -573 -195 -193 -402 -395 -459
-450 -148 -143 -226 -236 -245 -295 -21 -63 -21 -162 0 -203 16 -31 521 -547
536 -547 11 0 1375 1378 1463 1478 20 23 32 42 26 42 -6 0 -11 -4 -11 -10 0
-5 -7 -10 -15 -10 -7 0 -19 -8 -24 -17 -7 -13 -10 35 -10 162 0 127 3 175 10
163 5 -10 17 -18 24 -18 8 0 15 -7 15 -15 0 -8 5 -15 11 -15 7 0 18 -8 26 -17
8 -10 13 -13 11 -6 -4 14 -527 553 -537 553 -4 0 -111 -100 -236 -222z"/>
<path d="M3510 2513 c-18 -21 -96 -103 -174 -183 -173 -178 -311 -323 -394
-415 l-63 -69 3 -88 c2 -48 0 -88 -4 -88 -5 0 -8 5 -8 10 0 6 -6 10 -14 10 -8
0 -16 6 -19 13 -2 6 -8 9 -12 5 -4 -4 48 -64 116 -135 218 -227 472 -483 478
-483 4 0 144 136 312 303 289 285 307 306 342 379 32 66 37 87 37 146 0 89 -3
94 -260 347 -111 110 -220 219 -243 243 -22 23 -46 42 -53 42 -6 0 -26 -17
-44 -37z"/>
<path d="M2857 1823 c-4 -3 -7 -11 -7 -17 0 -6 5 -5 12 2 6 6 9 14 7 17 -3 3
-9 2 -12 -2z"/>
</g>
</svg>
