<svg width="22" height="34" viewBox="0 0 22 34" fill="none" xmlns="http://www.w3.org/2000/svg">
<path d="M5.39961 24H16.5996V27.2H5.39961V24ZM8.59961 30.4H13.3996V33.6H8.59961V30.4ZM16.5996 20.8H8.59961C8.59961 19.04 -1.48039 11.68 9.39961 11.2L3.79961 14.4C5.07961 13.12 2.19961 11.2 3.63961 7.2C3.63961 3.2 14.9996 2.4 10.9996 2.4C6.99961 2.4 2.99961 6.4 2.99961 10.4C2.99961 12.32 4.59961 14.08 5.87961 15.52L6.67961 16.32C7.95961 17.6 8.59961 19.04 8.59961 20.8H5.39961C5.39961 20 5.07961 19.2 4.43961 18.56L3.63961 17.76C1.71961 15.84 0.599609 13.12 0.599609 10.4C0.599609 4.64 5.23961 0 10.9996 0C16.7596 0 21.3996 4.64 21.3996 10.4C21.3996 13.12 20.2796 15.84 18.3596 17.76L17.5596 18.56C16.9196 19.2 16.5996 20 16.5996 20.8Z" fill="#FFD166"/>
</svg>
