<svg width="128" height="39" viewBox="0 0 128 39" fill="none" xmlns="http://www.w3.org/2000/svg">
<path d="M40.68 22.752L40.072 31.52C40.0507 31.6907 40.0293 31.8187 40.008 31.904C40.008 31.968 39.912 32 39.72 32H37.96C36.7653 32 35.912 31.7653 35.4 31.296C34.888 30.8267 34.632 30.1547 34.632 29.28C34.632 28.8533 34.664 28.128 34.728 27.104C34.792 26.0587 34.8773 24.8747 34.984 23.552C35.0907 22.2293 35.1973 20.832 35.304 19.36C35.4107 17.888 35.5173 16.5013 35.624 15.2C35.7307 13.8987 35.816 12.7573 35.88 11.776C35.944 10.7947 35.976 10.1227 35.976 9.76C35.976 9.44 36.1467 9.28 36.488 9.28H47.752C47.88 9.28 47.9973 9.312 48.104 9.376C48.2107 9.44 48.264 9.55733 48.264 9.728L48.136 11.616C48.0933 12.256 47.912 12.7787 47.592 13.184C47.2933 13.568 46.664 13.76 45.704 13.76H41.288L40.968 18.272H45.512C45.64 18.272 45.7573 18.304 45.864 18.368C45.9707 18.432 46.024 18.5493 46.024 18.72L45.896 20.608C45.8533 21.248 45.672 21.7707 45.352 22.176C45.0533 22.56 44.424 22.752 43.464 22.752H40.68ZM52.4518 32C51.7904 32 51.2464 31.936 50.8198 31.808C50.4144 31.6587 50.0838 31.456 49.8278 31.2C49.5931 30.944 49.4224 30.6347 49.3158 30.272C49.2304 29.888 49.1878 29.4507 49.1878 28.96C49.1878 28.64 49.1984 28.192 49.2198 27.616C49.2624 27.0187 49.3264 26.208 49.4118 25.184C49.4971 24.1387 49.5931 22.8267 49.6998 21.248C49.8278 19.648 49.9771 17.6747 50.1478 15.328C50.1691 14.8587 50.2224 14.5813 50.3078 14.496C50.3718 14.432 50.5424 14.4 50.8198 14.4H52.0677C52.7291 14.4 53.2624 14.464 53.6678 14.592C54.0944 14.72 54.4251 14.912 54.6598 15.168C54.9158 15.424 55.0864 15.7333 55.1718 16.096C55.2784 16.4587 55.3318 16.864 55.3318 17.312C55.3318 17.632 55.3104 18.112 55.2678 18.752C55.2251 19.392 55.1611 20.2667 55.0758 21.376C55.0118 22.464 54.9158 23.8293 54.7878 25.472C54.6598 27.0933 54.4998 29.056 54.3078 31.36C54.2864 31.616 54.2331 31.7867 54.1478 31.872C54.0624 31.9573 53.8811 32 53.6038 32H52.4518ZM50.1798 10.624C50.1798 9.77067 50.4891 9.09867 51.1078 8.608C51.7264 8.11733 52.5584 7.872 53.6038 7.872C54.5211 7.872 55.1824 8.064 55.5878 8.448C56.0144 8.81067 56.2278 9.30133 56.2278 9.92C56.2278 10.7093 55.9291 11.3707 55.3318 11.904C54.7558 12.416 53.9024 12.672 52.7718 12.672C51.0438 12.672 50.1798 11.9893 50.1798 10.624ZM72.8118 32C71.9371 32 71.2864 31.872 70.8598 31.616C70.4331 31.36 70.1238 31.04 69.9318 30.656C68.8224 28.3733 67.7771 26.1867 66.7958 24.096C65.8358 22.0053 64.8544 19.8933 63.8518 17.76C63.8731 20.064 63.9051 22.3573 63.9478 24.64C63.9904 26.9227 64.0331 29.216 64.0758 31.52C64.0758 31.84 63.9051 32 63.5638 32H61.8038C60.5878 32 59.7238 31.7653 59.2118 31.296C58.7211 30.8053 58.4758 30.0907 58.4758 29.152C58.4758 28.896 58.4864 28.4693 58.5078 27.872C58.5504 27.2533 58.6038 26.528 58.6678 25.696C58.7318 24.864 58.7958 23.9573 58.8598 22.976C58.9451 21.9733 59.0304 20.96 59.1158 19.936C59.2438 18.3147 59.3504 16.9707 59.4358 15.904C59.5211 14.8373 59.5851 13.9413 59.6278 13.216C59.6918 12.4693 59.7344 11.84 59.7558 11.328C59.7771 10.7947 59.7984 10.272 59.8198 9.76C59.8198 9.44 59.9904 9.28 60.3318 9.28H62.8918C63.5958 9.28 64.1718 9.36533 64.6198 9.536C65.0678 9.68533 65.4304 9.89867 65.7078 10.176C66.0064 10.4533 66.2411 10.7733 66.4118 11.136C66.5824 11.4773 66.7424 11.84 66.8918 12.224C67.4038 13.5467 67.8518 14.688 68.2358 15.648C68.6411 16.608 68.9931 17.4507 69.2918 18.176C69.5904 18.9013 69.8464 19.5307 70.0598 20.064C70.2944 20.5973 70.5078 21.088 70.6998 21.536C70.8918 21.984 71.0838 22.4213 71.2758 22.848C71.4678 23.2533 71.6704 23.7013 71.8838 24.192C71.8838 22.9333 71.8731 21.6427 71.8518 20.32C71.8518 18.976 71.8411 17.6747 71.8198 16.416C71.8198 15.136 71.8091 13.9093 71.7878 12.736C71.7878 11.5627 71.7878 10.5067 71.7878 9.568C71.7878 9.376 71.9691 9.28 72.3318 9.28H74.0918C74.7958 9.28 75.3504 9.35467 75.7558 9.504C76.1824 9.632 76.5131 9.83467 76.7478 10.112C76.9824 10.368 77.1318 10.688 77.1958 11.072C77.2811 11.456 77.3238 11.8933 77.3238 12.384C77.3238 12.9173 77.2918 13.7387 77.2278 14.848C77.1638 15.936 77.0891 17.1627 77.0038 18.528C76.9184 19.8933 76.8224 21.312 76.7158 22.784C76.6091 24.2347 76.5024 25.5787 76.3958 26.816C76.3104 28.0533 76.2251 29.1093 76.1398 29.984C76.0758 30.8373 76.0331 31.3387 76.0118 31.488C76.0118 31.6587 75.9478 31.7867 75.8198 31.872C75.7131 31.9573 75.5851 32 75.4358 32H72.8118ZM87.1988 32.32C85.7268 32.32 84.5001 32.1173 83.5188 31.712C82.5588 31.2853 81.7908 30.7093 81.2148 29.984C80.6388 29.2587 80.2334 28.416 79.9988 27.456C79.7641 26.4747 79.6468 25.4293 79.6468 24.32C79.6468 23.04 79.7961 21.792 80.0948 20.576C80.4148 19.3387 80.9481 18.24 81.6948 17.28C82.4414 16.32 83.4228 15.552 84.6388 14.976C85.8761 14.3787 87.4121 14.08 89.2468 14.08C91.9348 14.08 93.8548 14.7413 95.0068 16.064C96.1801 17.3653 96.7668 19.2 96.7668 21.568C96.7668 22.2293 96.7134 22.9653 96.6068 23.776C96.5214 24.5653 96.3401 25.3547 96.0628 26.144C95.8068 26.9333 95.4441 27.7013 94.9748 28.448C94.5268 29.1947 93.9508 29.856 93.2468 30.432C92.5428 31.008 91.6894 31.4667 90.6868 31.808C89.7054 32.1493 88.5428 32.32 87.1988 32.32ZM88.7028 18.336C87.8921 18.336 87.2414 18.5493 86.7508 18.976C86.2814 19.3813 85.9188 19.8827 85.6628 20.48C85.4281 21.056 85.2681 21.6747 85.1828 22.336C85.1188 22.976 85.0868 23.52 85.0868 23.968C85.0868 25.376 85.3108 26.4107 85.7588 27.072C86.2068 27.7333 86.8468 28.064 87.6788 28.064C88.4254 28.064 89.0334 27.8293 89.5028 27.36C89.9934 26.8907 90.3668 26.3253 90.6228 25.664C90.9001 25.0027 91.0814 24.3093 91.1668 23.584C91.2734 22.8587 91.3268 22.2507 91.3268 21.76C91.3268 20.6933 91.1241 19.8613 90.7188 19.264C90.3348 18.6453 89.6628 18.336 88.7028 18.336ZM106.036 18.72C105.972 19.5307 105.897 20.3307 105.812 21.12C105.748 21.9093 105.684 22.656 105.62 23.36C105.556 24.064 105.502 24.6933 105.46 25.248C105.438 25.8027 105.428 26.2293 105.428 26.528C105.428 27.0827 105.492 27.456 105.62 27.648C105.748 27.8187 105.961 27.904 106.26 27.904C106.494 27.904 106.697 27.8613 106.868 27.776C107.038 27.6907 107.198 27.5947 107.348 27.488C107.497 27.3813 107.625 27.2853 107.732 27.2C107.86 27.1147 107.998 27.072 108.148 27.072C108.297 27.072 108.436 27.1573 108.564 27.328C108.692 27.4987 108.756 27.8933 108.756 28.512C108.756 29.6853 108.436 30.6133 107.796 31.296C107.156 31.9787 106.057 32.32 104.5 32.32C102.964 32.32 101.822 31.968 101.076 31.264C100.35 30.5387 99.9878 29.44 99.9878 27.968C99.9878 27.648 99.9984 27.2747 100.02 26.848C100.062 26.4 100.116 25.824 100.18 25.12C100.244 24.416 100.318 23.552 100.404 22.528C100.51 21.504 100.617 20.2347 100.724 18.72H99.0278C98.8571 18.72 98.7504 18.688 98.7078 18.624C98.6864 18.5387 98.6758 18.4213 98.6758 18.272L98.7718 16.64C98.7931 16.3627 98.8251 16.096 98.8678 15.84C98.9318 15.5627 99.0384 15.3173 99.1878 15.104C99.3584 14.8907 99.5931 14.72 99.8918 14.592C100.19 14.464 100.585 14.4 101.076 14.4C101.225 14.016 101.396 13.5573 101.588 13.024C101.78 12.4907 101.972 11.9787 102.164 11.488C102.356 10.976 102.537 10.5493 102.708 10.208C102.9 9.86667 103.07 9.696 103.22 9.696H104.148C105.044 9.696 105.662 9.97333 106.004 10.528C106.345 11.0827 106.516 11.744 106.516 12.512C106.516 12.9387 106.484 13.568 106.42 14.4H109.78C110.121 14.4 110.292 14.5493 110.292 14.848L110.164 16.576C110.121 17.216 109.94 17.7387 109.62 18.144C109.321 18.528 108.692 18.72 107.732 18.72H106.036ZM119.11 32.32C118.172 32.32 117.233 32.2027 116.294 31.968C115.377 31.7333 114.545 31.328 113.798 30.752C113.073 30.176 112.476 29.408 112.006 28.448C111.537 27.488 111.302 26.2827 111.302 24.832C111.302 24.2987 111.345 23.6587 111.43 22.912C111.516 22.1653 111.676 21.3973 111.91 20.608C112.166 19.8187 112.508 19.04 112.934 18.272C113.382 17.4827 113.958 16.7787 114.662 16.16C115.366 15.5413 116.22 15.04 117.222 14.656C118.225 14.272 119.42 14.08 120.806 14.08C121.916 14.08 122.854 14.208 123.622 14.464C124.39 14.72 125.009 15.072 125.478 15.52C125.948 15.9467 126.289 16.448 126.502 17.024C126.716 17.6 126.822 18.2187 126.822 18.88C126.822 19.8613 126.62 20.6933 126.214 21.376C125.83 22.0587 125.318 22.6347 124.678 23.104C124.06 23.552 123.366 23.904 122.598 24.16C121.83 24.416 121.073 24.6187 120.326 24.768C119.58 24.896 118.886 24.9813 118.246 25.024C117.628 25.0453 117.148 25.056 116.806 25.056C116.806 25.4613 116.86 25.8667 116.966 26.272C117.094 26.656 117.276 26.9973 117.51 27.296C117.745 27.5947 118.054 27.84 118.438 28.032C118.822 28.224 119.292 28.32 119.846 28.32C120.401 28.32 120.828 28.2347 121.126 28.064C121.446 27.872 121.702 27.6693 121.894 27.456C122.086 27.2213 122.246 27.0187 122.374 26.848C122.524 26.656 122.716 26.56 122.95 26.56C123.057 26.56 123.238 26.592 123.494 26.656C123.772 26.6987 124.049 26.8053 124.326 26.976C124.604 27.1467 124.849 27.3813 125.062 27.68C125.276 27.9787 125.382 28.3627 125.382 28.832C125.382 29.4507 125.19 29.984 124.806 30.432C124.422 30.88 123.921 31.2427 123.302 31.52C122.705 31.7973 122.033 32 121.286 32.128C120.54 32.256 119.814 32.32 119.11 32.32ZM119.718 18.336C119.249 18.336 118.844 18.4747 118.502 18.752C118.182 19.008 117.905 19.3387 117.67 19.744C117.457 20.1493 117.286 20.5973 117.158 21.088C117.052 21.5787 116.966 22.048 116.902 22.496C118.225 22.4747 119.292 22.2507 120.102 21.824C120.934 21.3973 121.35 20.7893 121.35 20C121.35 19.5733 121.212 19.1893 120.934 18.848C120.678 18.5067 120.273 18.336 119.718 18.336Z" fill="#3D5A80"/>
<path d="M6 12H20V15H6V12Z" fill="#9F9FED"/>
<path d="M9 15H11V23H9V15Z" fill="black"/>
<path d="M9 21H16V23H12.5H9V21Z" fill="black"/>
<path d="M9 21H16V23H12.5H9V21Z" fill="black"/>
<path d="M14.4141 19L17.4155 22.0015L16.0013 23.4157L14.5006 21.9149L12.9998 20.4142L14.4141 19Z" fill="black"/>
<path d="M14.4141 19L17.4155 22.0015L16.0013 23.4157L14.5006 21.9149L12.9998 20.4142L14.4141 19Z" fill="black"/>
<path d="M13 24.0015L16.0015 21L17.4157 22.4142L15.9149 23.9149L14.4142 25.4157L13 24.0015Z" fill="black"/>
<path d="M13 24.0015L16.0015 21L17.4157 22.4142L15.9149 23.9149L14.4142 25.4157L13 24.0015Z" fill="black"/>
<path d="M18 32H4V8H22V12H24V8C24 6.9 23.1 6 22 6H4C2.9 6 2 6.9 2 8V32C2 33.1 2.9 34 4 34H18V32Z" fill="black"/>
<path d="M20 29H27V31H20V29ZM22 33H25V35H22V33ZM27 27H22C22 25.9 15.7 21.3 22.5 21L19 23C19.8 22.2 18 21 18.9 18.5C18.9 16 26 15.5 23.5 15.5C21 15.5 18.5 18 18.5 20.5C18.5 21.7 19.5 22.8 20.3 23.7L20.8 24.2C21.6 25 22 25.9 22 27H20C20 26.5 19.8 26 19.4 25.6L18.9 25.1C17.7 23.9 17 22.2 17 20.5C17 16.9 19.9 14 23.5 14C27.1 14 30 16.9 30 20.5C30 22.2 29.3 23.9 28.1 25.1L27.6 25.6C27.2 26 27 26.5 27 27Z" fill="#FFD166"/>
</svg>
